<?xml version="1.0" standalone="no"?>
<!DOCTYPE svg PUBLIC "-//W3C//DTD SVG 20010904//EN"
 "http://www.w3.org/TR/2001/REC-SVG-20010904/DTD/svg10.dtd">
<svg version="1.0" xmlns="http://www.w3.org/2000/svg"
 width="700.000000pt" height="700.000000pt" viewBox="0 0 700.000000 700.000000"
 preserveAspectRatio="xMidYMid meet">
<metadata>
Created by potrace 1.14, written by Peter Selinger 2001-2017
</metadata>
<g transform="translate(0.000000,700.000000) scale(0.100000,-0.100000)"
fill="#000000" stroke="none">
<path d="M3175 6369 c-738 -49 -1406 -237 -1921 -540 -507 -298 -823 -640
-928 -1002 -87 -300 -37 -587 140 -800 112 -136 337 -273 579 -353 107 -36
113 -36 220 -31 135 7 247 31 283 62 37 32 20 48 -81 75 -313 82 -555 255
-662 474 -68 138 -80 195 -79 371 0 164 11 226 64 363 123 318 443 618 912
853 426 214 939 339 1553 379 399 26 987 -1 1350 -61 568 -95 1042 -336 1353
-689 279 -317 406 -679 389 -1105 -12 -292 -82 -540 -256 -900 -304 -631 -792
-1204 -1441 -1691 -711 -535 -1397 -841 -2100 -939 -63 -9 -221 -19 -350 -22
l-235 -5 -50 33 c-54 37 -108 109 -125 167 -33 112 -18 272 41 459 258 811
728 1823 1242 2673 313 518 475 719 916 1137 63 60 74 75 74 103 0 24 -8 40
-28 58 -27 23 -35 24 -109 19 -89 -5 -162 -27 -305 -92 -186 -84 -304 -163
-364 -246 -15 -20 -38 -70 -53 -110 -37 -104 -85 -196 -174 -334 -282 -441
-581 -974 -844 -1505 -332 -670 -564 -1239 -642 -1575 -25 -107 -28 -140 -29
-295 0 -157 2 -182 23 -241 45 -131 92 -182 280 -305 187 -122 178 -119 322
-118 154 1 301 17 532 55 684 114 1370 397 2043 844 920 610 1531 1302 1838
2080 64 163 100 282 127 421 120 622 -61 1177 -520 1590 -495 445 -1167 679
-2138 744 -175 11 -668 11 -847 -1z"/>
</g>
</svg>
